# Blender v2.65 (sub 0) OBJ File: ''
# www.blender.org
mtllib box.mtl
o Cube.001
v 0.612480 0.022710 0.021059
v 0.612480 0.022710 0.621059
v 0.012479 0.022710 0.621059
v 0.012480 0.022710 0.021059
v 0.612480 1.282710 0.021060
v 0.012480 1.282710 0.021059
v 0.012479 1.282710 0.621059
v 0.612479 1.282710 0.621060
vt 0.479610 0.690006
vt 0.120171 0.690006
vt 0.120171 0.330567
vt 0.479610 0.330567
vt 0.479668 0.689917
vt 0.120229 0.689917
vt 0.120228 0.330478
vt 0.479668 0.330478
vt 0.940604 0.133009
vt 0.940604 0.887832
vt 0.581164 0.887832
vt 0.581165 0.133009
vt 0.940622 0.133007
vt 0.940622 0.887830
vt 0.581183 0.887831
vt 0.581183 0.133008
vt 0.940619 0.133006
vt 0.940619 0.887829
vt 0.581180 0.887829
vt 0.581180 0.133006
vt 0.940616 0.133000
vt 0.940616 0.887823
vt 0.581177 0.887823
vt 0.581177 0.133001
vn 0.000000 -1.000000 -0.000000
vn -0.000000 1.000000 0.000000
vn 1.000000 -0.000000 0.000002
vn 1.000000 0.000001 0.000000
vn -0.000002 -0.000001 1.000000
vn 0.000000 -0.000000 1.000000
vn -1.000000 0.000000 -0.000002
vn 0.000000 0.000001 -1.000000
vn 0.000002 0.000000 -1.000000
usemtl Material.001
s off
f 1/1/1 2/2/1 3/3/1
f 1/1/1 3/3/1 4/4/1
f 5/5/2 6/6/2 7/7/2
f 5/5/2 7/7/2 8/8/2
f 1/9/3 5/10/3 8/11/3
f 1/9/4 8/11/4 2/12/4
f 2/13/5 8/14/5 7/15/5
f 2/13/6 7/15/6 3/16/6
f 3/17/7 7/18/7 6/19/7
f 3/17/7 6/19/7 4/20/7
f 5/21/8 1/22/8 4/23/8
f 5/21/9 4/23/9 6/24/9
